<?xml version="1.0" encoding="UTF-8" standalone="no"?>
<!-- Created with Inkscape (http://www.inkscape.org/) -->

<svg
   width="114.81176mm"
   height="58.082596mm"
   viewBox="0 0 114.81176 58.082596"
   version="1.1"
   id="svg1"
   xml:space="preserve"
   inkscape:version="1.3 (0e150ed6c4, 2023-07-21)"
   sodipodi:docname="sensor_setup.svg"
   inkscape:export-filename="sensor_setup.png"
   inkscape:export-xdpi="250"
   inkscape:export-ydpi="250"
   xmlns:inkscape="http://www.inkscape.org/namespaces/inkscape"
   xmlns:sodipodi="http://sodipodi.sourceforge.net/DTD/sodipodi-0.dtd"
   xmlns="http://www.w3.org/2000/svg"
   xmlns:svg="http://www.w3.org/2000/svg"><sodipodi:namedview
     id="namedview1"
     pagecolor="#ffffff"
     bordercolor="#666666"
     borderopacity="1.0"
     inkscape:showpageshadow="2"
     inkscape:pageopacity="0.0"
     inkscape:pagecheckerboard="0"
     inkscape:deskcolor="#d1d1d1"
     inkscape:document-units="mm"
     inkscape:zoom="1.4200196"
     inkscape:cx="194.36351"
     inkscape:cy="126.4067"
     inkscape:window-width="1920"
     inkscape:window-height="1017"
     inkscape:window-x="-8"
     inkscape:window-y="-8"
     inkscape:window-maximized="1"
     inkscape:current-layer="layer1" /><defs
     id="defs1"><inkscape:path-effect
       hide_knots="false"
       only_selected="false"
       apply_with_radius="true"
       apply_no_radius="true"
       use_knot_distance="false"
       flexible="false"
       chamfer_steps="1"
       radius="5"
       mode="F"
       method="auto"
       unit="px"
       satellites_param="F,0,0,1,0,1.3229167,0,1 @ F,0,0,1,0,1.3229167,0,1 @ F,0,0,1,0,1.3229167,0,1 @ F,0,0,1,0,1.3229167,0,1"
       is_visible="true"
       id="path-effect887"
       effect="fillet_chamfer"
       nodesatellites_param="F,0,0,1,0,1.3229167,0,1 @ F,0,0,1,0,1.3229167,0,1 @ F,0,0,1,0,1.3229167,0,1 @ F,0,0,1,0,1.3229167,0,1"
       lpeversion="0" /><inkscape:path-effect
       hide_knots="false"
       only_selected="false"
       apply_with_radius="true"
       apply_no_radius="true"
       use_knot_distance="false"
       flexible="false"
       chamfer_steps="1"
       radius="5"
       mode="F"
       method="auto"
       unit="px"
       satellites_param="F,0,0,1,0,1.3229167,0,1 @ F,0,0,1,0,1.3229167,0,1 @ F,0,0,1,0,1.3229167,0,1 @ F,0,0,1,0,1.3229167,0,1"
       is_visible="true"
       id="path-effect885"
       effect="fillet_chamfer"
       nodesatellites_param="F,0,0,1,0,1.3229167,0,1 @ F,0,0,1,0,1.3229167,0,1 @ F,0,0,1,0,1.3229167,0,1 @ F,0,0,1,0,1.3229167,0,1"
       lpeversion="0" /><inkscape:path-effect
       hide_knots="false"
       only_selected="false"
       apply_with_radius="true"
       apply_no_radius="true"
       use_knot_distance="false"
       flexible="false"
       chamfer_steps="1"
       radius="20"
       mode="F"
       method="auto"
       unit="px"
       satellites_param="F,0,0,1,0,3.0825164,0,1 @ F,0,0,1,0,0,0,1 @ F,0,0,1,0,3.0825484,0,1 @ F,0,0,1,0,1.3959479,0,1 @ F,0,0,1,0,2.7516765,0,1 @ F,0,0,1,0,1.6710441,0,1 @ F,0,0,1,0,1.6710441,0,1 @ F,0,0,1,0,2.7516765,0,1 @ F,0,0,1,0,1.3959613,0,1"
       is_visible="true"
       id="path-effect883"
       effect="fillet_chamfer"
       nodesatellites_param="F,0,0,1,0,3.0825164,0,1 @ F,0,0,1,0,0,0,1 @ F,0,0,1,0,3.0825484,0,1 @ F,0,0,1,0,1.3959479,0,1 @ F,0,0,1,0,2.7516765,0,1 @ F,0,0,1,0,1.6710441,0,1 @ F,0,0,1,0,1.6710441,0,1 @ F,0,0,1,0,2.7516765,0,1 @ F,0,0,1,0,1.3959613,0,1"
       lpeversion="0" /><inkscape:path-effect
       hide_knots="false"
       only_selected="false"
       apply_with_radius="true"
       apply_no_radius="true"
       use_knot_distance="false"
       flexible="false"
       chamfer_steps="1"
       radius="5"
       mode="F"
       method="auto"
       unit="px"
       satellites_param="F,0,0,1,0,0.70770783,0,1 @ F,0,0,1,0,2.4729252,0,1 @ F,0,0,1,0,2.4729192,0,1 @ F,0,0,1,0,0.70770955,0,1"
       is_visible="true"
       id="path-effect881"
       effect="fillet_chamfer"
       nodesatellites_param="F,0,0,1,0,0.70770783,0,1 @ F,0,0,1,0,2.4729252,0,1 @ F,0,0,1,0,2.4729192,0,1 @ F,0,0,1,0,0.70770955,0,1"
       lpeversion="0" /><inkscape:path-effect
       hide_knots="false"
       only_selected="false"
       apply_with_radius="true"
       apply_no_radius="true"
       use_knot_distance="false"
       flexible="false"
       chamfer_steps="1"
       radius="3"
       mode="F"
       method="auto"
       unit="px"
       satellites_param="F,0,0,1,0,0.79375,0,1 @ F,0,0,1,0,0.79375,0,1 @ F,0,0,1,0,0.30352714,0,1 @ F,0,0,1,0,2.0757256,0,1"
       is_visible="true"
       id="path-effect879"
       effect="fillet_chamfer"
       nodesatellites_param="F,0,0,1,0,0.79375,0,1 @ F,0,0,1,0,0.79375,0,1 @ F,0,0,1,0,0.30352714,0,1 @ F,0,0,1,0,2.0757256,0,1"
       lpeversion="0" /><inkscape:path-effect
       hide_knots="false"
       only_selected="false"
       apply_with_radius="true"
       apply_no_radius="true"
       use_knot_distance="false"
       flexible="false"
       chamfer_steps="1"
       radius="3"
       mode="F"
       method="auto"
       unit="px"
       satellites_param="F,0,0,1,0,0.79375,0,1 @ F,0,0,1,0,0.79375,0,1 @ F,0,0,1,0,0.30352714,0,1 @ F,0,0,1,0,2.0757256,0,1"
       is_visible="true"
       id="path-effect877"
       effect="fillet_chamfer"
       nodesatellites_param="F,0,0,1,0,0.79375,0,1 @ F,0,0,1,0,0.79375,0,1 @ F,0,0,1,0,0.30352714,0,1 @ F,0,0,1,0,2.0757256,0,1"
       lpeversion="0" /><inkscape:path-effect
       hide_knots="false"
       only_selected="false"
       apply_with_radius="true"
       apply_no_radius="true"
       use_knot_distance="false"
       flexible="false"
       chamfer_steps="1"
       radius="3"
       mode="F"
       method="auto"
       unit="px"
       satellites_param="F,0,0,1,0,0.79375,0,1 @ F,0,0,1,0,0.79375,0,1 @ F,0,0,1,0,0.14604204,0,1 @ F,0,0,1,0,4.3140937,0,1"
       is_visible="true"
       id="path-effect875"
       effect="fillet_chamfer"
       nodesatellites_param="F,0,0,1,0,0.79375,0,1 @ F,0,0,1,0,0.79375,0,1 @ F,0,0,1,0,0.14604204,0,1 @ F,0,0,1,0,4.3140937,0,1"
       lpeversion="0" /><inkscape:path-effect
       hide_knots="false"
       only_selected="false"
       apply_with_radius="true"
       apply_no_radius="true"
       use_knot_distance="false"
       flexible="false"
       chamfer_steps="1"
       radius="3"
       mode="F"
       method="auto"
       unit="px"
       satellites_param="F,0,0,1,0,0.79375,0,1 @ F,0,0,1,0,0.79375,0,1 @ F,0,0,1,0,0.14604204,0,1 @ F,0,0,1,0,4.3140937,0,1"
       is_visible="true"
       id="path-effect873"
       effect="fillet_chamfer"
       nodesatellites_param="F,0,0,1,0,0.79375,0,1 @ F,0,0,1,0,0.79375,0,1 @ F,0,0,1,0,0.14604204,0,1 @ F,0,0,1,0,4.3140937,0,1"
       lpeversion="0" /><inkscape:path-effect
       hide_knots="false"
       only_selected="false"
       apply_with_radius="true"
       apply_no_radius="true"
       use_knot_distance="false"
       flexible="false"
       chamfer_steps="1"
       radius="10"
       mode="F"
       method="auto"
       unit="px"
       satellites_param="F,0,0,1,0,2.0889029,0,1 @ F,0,0,1,0,3.2331425,0,1 @ F,0,0,1,0,0,0,1 @ F,0,0,1,0,3.1444048,0,1 @ F,0,0,1,0,2.04664,0,1 @ F,0,0,1,0,0,0,1"
       is_visible="true"
       id="path-effect871"
       effect="fillet_chamfer"
       nodesatellites_param="F,0,0,1,0,2.0889029,0,1 @ F,0,0,1,0,3.2331425,0,1 @ F,0,0,1,0,0,0,1 @ F,0,0,1,0,3.1444048,0,1 @ F,0,0,1,0,2.04664,0,1 @ F,0,0,1,0,0,0,1"
       lpeversion="0" /></defs><g
     inkscape:label="Ebene 1"
     inkscape:groupmode="layer"
     id="layer1"
     transform="translate(-45.228595,-131.69524)"><path
       style="fill:#363636;fill-opacity:1"
       d="m 90.576595,189.52254 c -1.360554,-0.31891 -2.483853,-1.19867 -3.602845,-2.82174 l -0.907163,-1.31581 -12.305584,-0.13696 c -15.941413,-0.17743 -17.836938,-0.48587 -21.71633,-3.53369 -5.098257,-4.00542 -6.624229,-8.41725 -6.795918,-19.64809 -0.193369,-12.64899 0.947719,-16.79827 5.891493,-21.42293 4.089502,-3.82553 5.254369,-4.05543 21.512646,-4.24578 12.022719,-0.14077 13.33793,-0.19843 13.559385,-0.59451 1.305636,-2.33512 3.067335,-3.70707 5.207201,-4.05517 1.564464,-0.2545 1.509611,0.302 -0.412344,4.18339 -0.05958,0.12032 2.970504,0.15087 6.733515,0.0679 3.763009,-0.083 7.258569,-0.15508 7.767899,-0.16021 38.76384,-0.39053 48.44389,0.58054 51.0376,5.1199 4.92663,8.62227 4.5637,33.82571 -0.58409,40.56215 -2.8535,3.73412 -5.02378,3.89746 -51.19669,3.85312 -7.612009,-0.007 -13.79725,0.0673 -13.744967,0.16568 0.699937,1.31774 1.523556,3.34948 1.523556,3.75838 0,0.57525 -0.316476,0.61135 -1.967364,0.22439 z m 60.170395,-6.33882 c 2.44667,-0.56376 3.16416,-1.49359 4.79724,-6.21701 1.70886,-4.94258 1.34427,-5.29042 -1.08751,-1.03756 -1.69305,2.96092 -3.27647,4.60436 -5.62554,5.83876 -1.95969,1.02979 -2.00426,1.12535 -0.672,1.44087 1.19962,0.2841 1.24809,0.28363 2.58781,-0.0251 z m -44.03074,-0.39786 3.19208,-0.15746 1.30584,-2.15536 c 0.71821,-1.18545 1.35184,-2.26526 1.40807,-2.39957 0.25423,-0.60725 -13.473879,0.37045 -18.710518,1.33254 -0.771458,0.14174 -3.219308,2.81871 -3.219987,3.52139 -1.72e-4,0.17813 11.625695,0.0754 16.024515,-0.14154 z m -43.55918,-0.27185 c 0.276373,-0.28328 -1.496185,-1.53456 -6.116104,-4.31748 -3.411508,-2.05501 -4.995355,-3.18668 -6.202564,-4.43177 -3.829316,-3.9495 -4.301836,-0.60339 -0.627774,4.44553 2.755147,3.78615 10.831947,6.47108 12.946442,4.30372 z m 68.28064,-0.3355 1.71979,-0.16394 0.23143,-1.54128 c 0.3433,-2.2863 -0.56144,-2.47226 -12.35321,-2.53906 l -3.65511,-0.0207 -1.04124,2.25376 c -0.57268,1.23957 -1.04124,2.3199 -1.04124,2.40075 0,0.17543 13.67542,-0.15461 16.13958,-0.38952 z m 11.28486,-1.33715 0.75368,-0.21535 -0.79308,-0.31626 c -1.04821,-0.41799 -3.81274,-1.06447 -4.57303,-1.0694 -0.75512,-0.005 -0.9554,0.48237 -0.59158,1.43929 l 0.28162,0.74071 2.08436,-0.18182 c 1.14639,-0.1 2.42351,-0.27873 2.83803,-0.39717 z m -60.627341,-1.87703 c 8.241422,-1.8025 9.808779,-1.1634 15.483381,-4.75832 6.55702,-4.15394 6.34407,-23.42566 -0.19509,-27.08578 -5.267744,-2.94848 -5.889848,-2.58943 -13.966976,-4.36759 -9.57416,-2.10772 -8.438963,-2.44696 -10.274979,3.07054 -3.386602,10.17724 -3.131853,22.53706 0.655962,31.82576 1.283198,3.14673 0.495766,3.02192 8.298412,1.31539 z m 69.532271,-0.73005 c 5.05378,-5.58436 6.00461,-22.88426 1.74767,-31.79798 -1.46799,-3.07387 -1.93132,-3.71236 -2.69396,-3.71236 -0.41134,0 -7.75444,3.00678 -8.08273,3.30964 -0.0462,0.0426 0.45005,1.3097 1.10282,2.81571 3.31027,7.63716 3.30415,16.17878 -0.017,23.71773 -0.65983,1.4978 -1.15197,2.771 -1.09364,2.82932 1.25774,1.25774 8.42884,3.50976 9.03683,2.83794 z M 50.959536,147.55259 c 1.34031,-1.35448 2.875612,-2.44939 6.355028,-4.53213 7.061217,-4.22677 7.108655,-4.30794 2.614279,-4.47309 -4.461837,-0.16396 -6.808093,0.96531 -9.743359,4.68952 -3.7787,4.79434 -3.152796,8.28405 0.774052,4.3157 z m 104.563494,-3.19071 c -1.73445,-4.85393 -2.42898,-5.69013 -5.08517,-6.12244 -3.01121,-0.49008 -4.17969,0.30157 -1.90164,1.28838 2.0094,0.87044 4.12913,2.88045 5.42948,5.14842 2.83944,4.95233 3.39891,4.8394 1.55733,-0.31436 z m -42.87073,-0.97382 c 0,-0.0713 -0.61364,-1.12919 -1.36364,-2.35087 -1.67564,-2.72947 -0.80112,-2.54658 -12.176909,-2.54658 h -8.439593 l 1.109153,1.65365 c 0.610034,0.9095 1.122438,1.67544 1.138677,1.70208 0.369978,0.60697 19.732312,2.11978 19.732312,1.54172 z m 20.0362,-0.37971 c 0.73548,-0.20272 1.02765,-2.87431 0.38465,-3.5173 -0.22397,-0.22397 -17.44772,-0.88677 -17.65509,-0.6794 -0.0721,0.0721 0.35006,1.17756 0.93816,2.45655 l 1.06927,2.32544 7.26472,-0.19155 c 3.99559,-0.10535 7.59482,-0.28253 7.99829,-0.39374 z m 8.15615,-1.34638 c 2.80674,-0.71784 2.89369,-0.93171 0.5222,-1.28443 -3.10966,-0.4625 -3.54782,-0.41624 -3.86107,0.40765 -0.58691,1.5437 0.0635,1.71449 3.33887,0.87678 z"
       id="path1"
       sodipodi:nodetypes="sscssssssssscssccssscssssccscssssssssssccsscssscscscscsscsssssccsssssscssssssssssssssscssssssscssssss" /><g
       id="g2"
       style="fill:#1eb92f;fill-opacity:1"
       transform="matrix(-1.0000008,0,0,-1.0000008,178.77512,374.53276)"><rect
         style="opacity:1;fill:#1eb92f;fill-opacity:1;stroke:none;stroke-width:1;stroke-linecap:square;stroke-miterlimit:1.5;stroke-dasharray:3, 3;paint-order:stroke fill markers"
         id="rect1"
         width="8.5708904"
         height="4.658093"
         x="70.244041"
         y="211.47742" /><path
         sodipodi:type="star"
         style="opacity:1;fill:#1eb92f;fill-opacity:1;stroke:none;stroke-width:1;stroke-linecap:square;stroke-miterlimit:1.5;stroke-dasharray:3, 3;paint-order:stroke fill markers"
         id="path2"
         inkscape:flatsided="true"
         sodipodi:sides="3"
         sodipodi:cx="73.582794"
         sodipodi:cy="202.50092"
         sodipodi:r1="3.6541543"
         sodipodi:r2="1.8270772"
         sodipodi:arg1="0.52359878"
         sodipodi:arg2="1.5707963"
         inkscape:rounded="0"
         inkscape:randomized="0"
         d="m 76.747385,204.32799 -6.329181,0 3.16459,-5.48123 z"
         inkscape:transform-center-y="-1.9038293e-06"
         transform="rotate(30,55.714249,220.20036)"
         inkscape:transform-center-x="0.91353661" /></g><g
       id="g3"
       style="fill:#1eb92f;fill-opacity:1"
       transform="matrix(-0.70710735,-0.70710735,0.70710735,-0.70710735,5.2808603,357.62523)"><rect
         style="opacity:1;fill:#1eb92f;fill-opacity:1;stroke:none;stroke-width:1;stroke-linecap:square;stroke-miterlimit:1.5;stroke-dasharray:3, 3;paint-order:stroke fill markers"
         id="rect2"
         width="8.5708904"
         height="4.658093"
         x="70.244041"
         y="211.47742" /><path
         sodipodi:type="star"
         style="opacity:1;fill:#1eb92f;fill-opacity:1;stroke:none;stroke-width:1;stroke-linecap:square;stroke-miterlimit:1.5;stroke-dasharray:3, 3;paint-order:stroke fill markers"
         id="path3"
         inkscape:flatsided="true"
         sodipodi:sides="3"
         sodipodi:cx="73.582794"
         sodipodi:cy="202.50092"
         sodipodi:r1="3.6541543"
         sodipodi:r2="1.8270772"
         sodipodi:arg1="0.52359878"
         sodipodi:arg2="1.5707963"
         inkscape:rounded="0"
         inkscape:randomized="0"
         d="m 76.747385,204.32799 -6.329181,0 3.16459,-5.48123 z"
         inkscape:transform-center-y="-1.9038293e-06"
         transform="rotate(30,55.714249,220.20036)"
         inkscape:transform-center-x="0.91353661" /></g><g
       id="g4"
       style="fill:#1eb92f;fill-opacity:1"
       transform="matrix(-0.70710735,0.70710735,0.70710735,0.70710735,5.2808603,-36.152142)"><rect
         style="opacity:1;fill:#1eb92f;fill-opacity:1;stroke:none;stroke-width:1;stroke-linecap:square;stroke-miterlimit:1.5;stroke-dasharray:3, 3;paint-order:stroke fill markers"
         id="rect3"
         width="8.5708904"
         height="4.658093"
         x="70.244041"
         y="211.47742" /><path
         sodipodi:type="star"
         style="opacity:1;fill:#1eb92f;fill-opacity:1;stroke:none;stroke-width:1;stroke-linecap:square;stroke-miterlimit:1.5;stroke-dasharray:3, 3;paint-order:stroke fill markers"
         id="path4"
         inkscape:flatsided="true"
         sodipodi:sides="3"
         sodipodi:cx="73.582794"
         sodipodi:cy="202.50092"
         sodipodi:r1="3.6541543"
         sodipodi:r2="1.8270772"
         sodipodi:arg1="0.52359878"
         sodipodi:arg2="1.5707963"
         inkscape:rounded="0"
         inkscape:randomized="0"
         d="m 76.747385,204.32799 -6.329181,0 3.16459,-5.48123 z"
         inkscape:transform-center-y="-1.9038293e-06"
         transform="rotate(30,55.714249,220.20036)"
         inkscape:transform-center-x="0.91353661" /></g><g
       id="g5"
       style="fill:#1eb92f;fill-opacity:1"
       transform="matrix(1.0000008,0,0,-1.0000008,66.574086,374.53276)"><rect
         style="opacity:1;fill:#1eb92f;fill-opacity:1;stroke:none;stroke-width:1;stroke-linecap:square;stroke-miterlimit:1.5;stroke-dasharray:3, 3;paint-order:stroke fill markers"
         id="rect4"
         width="8.5708904"
         height="4.658093"
         x="70.244041"
         y="211.47742" /><path
         sodipodi:type="star"
         style="opacity:1;fill:#1eb92f;fill-opacity:1;stroke:none;stroke-width:1;stroke-linecap:square;stroke-miterlimit:1.5;stroke-dasharray:3, 3;paint-order:stroke fill markers"
         id="path5"
         inkscape:flatsided="true"
         sodipodi:sides="3"
         sodipodi:cx="73.582794"
         sodipodi:cy="202.50092"
         sodipodi:r1="3.6541543"
         sodipodi:r2="1.8270772"
         sodipodi:arg1="0.52359878"
         sodipodi:arg2="1.5707963"
         inkscape:rounded="0"
         inkscape:randomized="0"
         d="m 76.747385,204.32799 -6.329181,0 3.16459,-5.48123 z"
         inkscape:transform-center-y="-1.9038293e-06"
         transform="rotate(30,55.714249,220.20036)"
         inkscape:transform-center-x="0.91353661" /></g><g
       id="g7"
       style="fill:#1eb92f;fill-opacity:1"
       transform="matrix(0.5000004,-0.8660261,-0.8660261,-0.5000004,263.17997,318.80284)"><rect
         style="opacity:1;fill:#1eb92f;fill-opacity:1;stroke:none;stroke-width:1;stroke-linecap:square;stroke-miterlimit:1.5;stroke-dasharray:3, 3;paint-order:stroke fill markers"
         id="rect6"
         width="8.5708904"
         height="4.658093"
         x="70.244041"
         y="211.47742" /><path
         sodipodi:type="star"
         style="opacity:1;fill:#1eb92f;fill-opacity:1;stroke:none;stroke-width:1;stroke-linecap:square;stroke-miterlimit:1.5;stroke-dasharray:3, 3;paint-order:stroke fill markers"
         id="path6"
         inkscape:flatsided="true"
         sodipodi:sides="3"
         sodipodi:cx="73.582794"
         sodipodi:cy="202.50092"
         sodipodi:r1="3.6541543"
         sodipodi:r2="1.8270772"
         sodipodi:arg1="0.52359878"
         sodipodi:arg2="1.5707963"
         inkscape:rounded="0"
         inkscape:randomized="0"
         d="m 76.747385,204.32799 -6.329181,0 3.16459,-5.48123 z"
         inkscape:transform-center-y="-1.9038293e-06"
         transform="rotate(30,55.714249,220.20036)"
         inkscape:transform-center-x="0.91353661" /></g><g
       id="g8"
       style="fill:#1eb92f;fill-opacity:1"
       transform="matrix(0.5000004,0.8660261,-0.8660261,0.5000004,263.17997,2.6702424)"><rect
         style="opacity:1;fill:#1eb92f;fill-opacity:1;stroke:none;stroke-width:1;stroke-linecap:square;stroke-miterlimit:1.5;stroke-dasharray:3, 3;paint-order:stroke fill markers"
         id="rect7"
         width="8.5708904"
         height="4.658093"
         x="70.244041"
         y="211.47742" /><path
         sodipodi:type="star"
         style="opacity:1;fill:#1eb92f;fill-opacity:1;stroke:none;stroke-width:1;stroke-linecap:square;stroke-miterlimit:1.5;stroke-dasharray:3, 3;paint-order:stroke fill markers"
         id="path7"
         inkscape:flatsided="true"
         sodipodi:sides="3"
         sodipodi:cx="73.582794"
         sodipodi:cy="202.50092"
         sodipodi:r1="3.6541543"
         sodipodi:r2="1.8270772"
         sodipodi:arg1="0.52359878"
         sodipodi:arg2="1.5707963"
         inkscape:rounded="0"
         inkscape:randomized="0"
         d="m 76.747385,204.32799 -6.329181,0 3.16459,-5.48123 z"
         inkscape:transform-center-y="-1.9038293e-06"
         transform="rotate(30,55.714249,220.20036)"
         inkscape:transform-center-x="0.91353661" /></g></g></svg>
